<svg width="146" height="70" viewBox="0 0 146 70" fill="none" xmlns="http://www.w3.org/2000/svg">
<path d="M0.690776 27.2393H14.0608L18.2184 32.3781L18.2911 27.2393H25.7831V44.8507H12.0755L7.579 39.7939L7.48811 44.8507H0.616765C0.616765 44.8507 5.82533e-06 44.8507 5.82533e-06 44.2355V27.9587C5.82533e-06 27.9587 -0.00908322 27.2406 0.690776 27.2406V27.2393Z" fill="#C50637"/>
<path d="M28.7995 0H42.0657C42.0657 0 43.2888 0.0899272 43.2888 1.48706V12.0633H27.1712V1.81809C27.1712 1.81809 27.105 0 28.8008 0H28.7995Z" fill="#C50637"/>
<path d="M27.1699 68.6561V13.4199H43.3225V68.6561C43.3225 68.6561 43.3225 69.9998 42.2435 69.9998H28.2256C28.2256 69.9998 27.1712 70.0415 27.1712 68.6561H27.1699Z" fill="#C50637"/>
<path d="M45.6827 27.2393H70.4908C70.4908 27.2393 71.5256 27.281 71.5256 28.2767V35.5152H58.4451V29.6921C58.4451 29.6921 58.4451 28.9348 57.9504 28.9348C57.9504 28.9348 57.409 28.9023 57.409 29.6881V42.1268C57.409 42.1268 57.3505 43.1042 57.94 43.1042C57.94 43.1042 58.4477 43.1108 58.4477 42.1229V36.5695L71.523 36.5787V43.8145C71.523 43.8145 71.5061 44.8493 70.4921 44.8493H45.684C45.684 44.8493 44.6855 44.8311 44.6855 43.8145V28.278C44.6855 28.278 44.683 27.2393 45.684 27.2393H45.6827Z" fill="#C50637"/>
<path d="M78.4576 27.2393H103.166V32.0693H88.0258C88.0258 32.0693 87.3129 32.0745 87.3129 32.7861C87.3129 32.8447 87.3324 33.4573 88.0258 33.4573H103.166V38.6444H88.0258C88.0258 38.6444 87.3467 38.6548 87.3467 39.3664C87.3467 39.3664 87.3311 40.0233 88.0413 40.0233H103.167V44.852H78.4589C78.4589 44.852 77.3682 44.852 77.3682 43.735V28.3458C77.3682 28.3458 77.3682 27.2419 78.4589 27.2419L78.4576 27.2393Z" fill="black"/>
<path d="M117.615 27.2393H104.526V44.8507H117.615V27.2393Z" fill="black"/>
<path d="M119.992 27.2197H144.8C144.8 27.2197 145.833 27.2614 145.833 28.2571V35.4956H132.753V29.6738C132.753 29.6738 132.753 28.9166 132.258 28.9166C132.258 28.9166 131.717 28.8827 131.717 29.6699V42.1085C131.717 42.1085 131.658 43.086 132.248 43.086C132.248 43.086 132.755 43.0925 132.755 42.1046V36.5513L145.831 36.5604V43.7963C145.831 43.7963 145.814 44.8311 144.8 44.8311H119.992C119.992 44.8311 118.993 44.8129 118.993 43.7963V28.2598C118.993 28.2598 118.991 27.2197 119.992 27.2197Z" fill="black"/>
</svg>
